<?xml version="1.0" standalone="no"?>
<!DOCTYPE svg PUBLIC "-//W3C//DTD SVG 20010904//EN"
 "http://www.w3.org/TR/2001/REC-SVG-20010904/DTD/svg10.dtd">
<svg version="1.0" xmlns="http://www.w3.org/2000/svg"
 width="500.000000pt" height="500.000000pt" viewBox="0 0 500.000000 500.000000"
 preserveAspectRatio="xMidYMid meet">

<g transform="translate(0.000000,500.000000) scale(0.100000,-0.100000)"
fill="#000000" stroke="none">
<path d="M500 2816 l0 -74 73 -76 72 -76 93 0 c107 0 128 -8 148 -56 12 -29
12 -39 0 -68 -8 -18 -20 -37 -27 -42 -8 -5 -77 -11 -154 -14 l-140 -5 -3 -74
-3 -75 73 -74 73 -74 105 4 c128 5 170 21 258 103 90 83 125 162 125 285 0
125 -35 203 -129 288 -101 94 -132 102 -369 102 l-195 0 0 -74z m417 19 c82
-28 166 -103 205 -182 30 -61 33 -76 33 -153 0 -77 -3 -92 -33 -153 -26 -51
-48 -79 -95 -117 -70 -57 -123 -78 -219 -87 l-68 -6 0 52 0 51 48 0 c59 0 136
24 180 57 18 13 46 51 62 83 42 82 42 158 0 240 -51 101 -128 140 -280 140
l-86 0 -49 51 -50 51 150 -4 c110 -3 164 -9 202 -23z m-287 -133 l0 -35 -44
39 c-38 33 -44 45 -45 79 l-1 39 45 -44 c36 -35 45 -51 45 -78z m244 7 c64
-23 130 -90 140 -140 18 -91 4 -158 -46 -213 -44 -51 -123 -86 -193 -86 -39 0
-49 5 -90 46 -25 25 -45 48 -45 50 0 2 47 4 104 4 l103 0 44 38 c40 37 43 42
43 92 0 50 -3 56 -43 91 -42 37 -45 38 -129 41 l-87 3 -3 33 c-6 57 0 62 77
62 46 0 89 -7 125 -21z m-216 -418 c35 -33 42 -45 42 -77 l0 -38 -50 49 c-36
36 -50 57 -50 77 0 15 3 28 8 28 4 -1 26 -18 50 -39z"/>
<path d="M1416 2728 c-6 -17 -83 -383 -90 -425 l-5 -33 91 0 c79 0 97 3 133
24 54 32 89 98 111 208 20 101 14 160 -20 203 -23 29 -27 30 -120 33 -74 3
-97 1 -100 -10z m176 -68 c25 -31 24 -123 -2 -201 -27 -79 -44 -104 -85 -123
-36 -17 -115 -22 -115 -7 0 13 69 332 75 350 9 23 105 9 127 -19z"/>
<path d="M1805 2693 c-16 -45 -76 -189 -115 -278 -60 -134 -61 -145 -22 -145
24 0 30 7 58 78 29 72 34 77 64 80 l32 3 -7 -80 -7 -81 30 0 c34 0 32 -11 52
250 6 74 13 154 16 178 l5 42 -45 0 c-44 0 -45 0 -61 -47z m36 -108 c-6 -42
-11 -81 -11 -86 0 -5 -9 -9 -20 -9 -12 0 -20 7 -20 18 0 19 52 163 58 158 2
-2 -1 -39 -7 -81z"/>
<path d="M2025 2728 c-8 -25 -45 -175 -60 -248 -9 -41 -23 -103 -31 -137 -18
-79 -19 -75 13 -71 26 3 27 8 79 218 29 118 53 223 54 233 0 20 -48 25 -55 5z"/>
<path d="M2137 2633 c-43 -182 -77 -337 -77 -350 0 -10 25 -13 94 -13 76 0 95
3 100 16 12 31 5 34 -64 34 -38 0 -70 2 -70 4 0 3 23 95 50 205 28 110 50 203
50 206 0 3 -13 5 -29 5 -28 0 -29 -2 -54 -107z"/>
<path d="M2310 2728 c0 -7 7 -72 15 -145 15 -127 15 -135 -5 -214 -11 -45 -20
-86 -20 -90 0 -5 13 -9 29 -9 28 0 30 3 45 70 23 98 42 143 101 235 70 109 95
151 95 159 0 4 -14 6 -31 4 -28 -3 -37 -12 -71 -73 -21 -38 -46 -87 -54 -107
-21 -50 -34 -48 -34 5 0 23 -3 72 -7 110 -6 66 -6 67 -34 67 -17 0 -29 -5 -29
-12z"/>
<path d="M2616 2723 c-3 -10 -23 -85 -45 -168 -22 -82 -49 -180 -60 -217 l-20
-68 34 0 c33 0 33 0 49 73 9 39 34 133 55 207 l38 135 6 -50 c4 -28 11 -102
17 -165 6 -63 13 -134 16 -158 l5 -43 41 3 c39 3 40 4 82 88 24 47 68 138 99
203 31 64 59 117 61 117 3 0 3 -6 1 -12 -2 -7 -13 -89 -25 -183 -11 -93 -23
-180 -25 -192 -5 -20 -1 -23 30 -23 19 0 35 1 35 3 0 1 6 56 14 122 8 66 17
163 21 215 4 52 9 103 12 113 4 16 -1 18 -48 15 l-53 -3 -95 -201 c-53 -111
-99 -200 -102 -198 -3 2 -11 83 -18 181 -17 240 -11 223 -71 223 -38 0 -50 -4
-54 -17z"/>
<path d="M3182 2706 c-66 -60 -112 -182 -112 -299 0 -112 54 -155 179 -142 72
7 91 17 130 71 50 70 74 148 75 252 1 94 1 94 -32 123 -30 27 -38 29 -117 29
-83 0 -86 -1 -123 -34z m183 -31 c34 -33 36 -88 8 -205 -27 -113 -70 -160
-148 -160 -50 0 -71 14 -85 54 -18 56 10 193 56 273 36 63 125 83 169 38z"/>
<path d="M3480 2731 c0 -5 -3 -16 -6 -25 -5 -13 2 -16 40 -16 l47 0 -7 -37
c-4 -21 -15 -72 -25 -113 -10 -41 -19 -85 -19 -97 0 -12 -7 -48 -15 -80 -21
-80 -20 -93 9 -93 23 0 26 7 46 98 12 53 34 147 49 207 l26 110 43 3 c23 2 42
7 42 12 0 4 3 15 6 24 5 14 -9 16 -115 16 -67 0 -121 -4 -121 -9z"/>
<path d="M3756 2728 c-9 -30 -86 -386 -91 -421 -6 -37 -5 -38 22 -35 27 3 28
4 73 208 26 113 49 217 53 233 7 25 5 27 -23 27 -17 0 -32 -6 -34 -12z"/>
<path d="M3901 2716 c-35 -38 -75 -189 -88 -339 -8 -92 5 -107 97 -107 101 0
107 9 165 278 14 63 22 125 19 138 -10 38 -41 54 -109 54 -52 0 -65 -4 -84
-24z m117 -28 c18 -18 15 -56 -13 -174 -14 -58 -25 -116 -25 -129 0 -12 -10
-34 -21 -49 -16 -21 -29 -26 -52 -24 -52 5 -54 22 -18 185 33 148 44 182 65
195 17 12 51 9 64 -4z"/>
<path d="M4161 2643 c-12 -54 -35 -157 -51 -230 -17 -72 -30 -134 -30 -137 0
-3 13 -6 29 -6 27 0 29 3 43 73 42 200 71 323 77 330 4 4 20 -75 35 -175 15
-101 30 -193 32 -205 4 -20 10 -23 53 -23 l49 0 25 113 c14 61 35 157 47 212
11 55 24 110 27 123 5 21 2 23 -23 20 l-29 -3 -45 -197 c-25 -109 -48 -198
-51 -198 -5 0 -55 299 -61 365 -3 29 -5 30 -55 33 l-51 3 -21 -98z"/>
</g>
</svg>
