<?xml version="1.0" standalone="no"?>
<!DOCTYPE svg PUBLIC "-//W3C//DTD SVG 20010904//EN"
 "http://www.w3.org/TR/2001/REC-SVG-20010904/DTD/svg10.dtd">
<svg version="1.0" xmlns="http://www.w3.org/2000/svg"
 width="998.000000pt" height="250.000000pt" viewBox="0 0 998.000000 250.000000"
 preserveAspectRatio="xMidYMid meet">

<g transform="translate(0.000000,250.000000) scale(0.100000,-0.100000)"
fill="#000000" stroke="none">
<path d="M3282 2072 c-10 -7 -12 -173 -10 -798 l3 -789 35 0 35 0 3 784 c1
571 -1 787 -9 797 -13 16 -37 18 -57 6z"/>
<path d="M1452 1975 c-142 -31 -260 -144 -298 -287 -18 -67 -20 -718 -3 -800
26 -124 107 -223 229 -282 l65 -31 406 0 405 0 76 38 c89 43 157 112 197 197
l26 55 3 388 c3 433 1 456 -63 553 -64 98 -158 156 -281 174 -107 15 -685 11
-762 -5z m811 -111 c63 -21 130 -83 164 -152 l28 -57 0 -380 0 -380 -24 -49
c-31 -63 -90 -122 -150 -150 -44 -20 -58 -21 -421 -21 -425 0 -434 1 -518 79
-95 87 -107 162 -98 586 7 354 12 377 90 455 83 83 83 83 512 84 312 1 378 -1
417 -15z"/>
<path d="M2204 1736 c-50 -22 -61 -87 -21 -124 27 -26 47 -27 87 -7 53 27 63
69 28 109 -30 32 -56 38 -94 22z"/>
<path d="M1760 1625 c-118 -33 -210 -122 -249 -243 -25 -73 -26 -117 -7 -190
29 -108 100 -192 205 -240 47 -22 70 -27 141 -26 72 0 95 4 146 28 74 33 143
101 180 175 50 101 41 242 -21 341 -80 126 -253 194 -395 155z m226 -130 c33
-21 60 -48 82 -85 28 -48 32 -63 32 -127 0 -156 -96 -255 -248 -255 -87 -1
-164 39 -209 105 -91 136 -27 340 123 387 16 5 61 8 100 7 59 -2 79 -7 120
-32z"/>
<path d="M4463 1761 c-58 -36 -127 -182 -144 -301 -25 -177 50 -322 173 -337
64 -8 68 -15 54 -76 -22 -93 -64 -149 -141 -190 -30 -16 -58 -22 -115 -22
-115 0 -167 38 -177 128 -4 36 0 48 29 86 68 90 72 122 13 129 -32 4 -76 -33
-95 -79 -17 -40 -8 -155 15 -203 40 -82 143 -123 288 -113 172 12 271 106 297
283 16 110 13 666 -3 688 -22 30 -151 34 -194 7z m72 -91 l25 -10 -2 -227 -3
-228 -26 -9 c-40 -14 -79 11 -108 69 -23 45 -26 61 -25 165 0 104 3 120 27
171 23 48 51 76 79 78 4 1 18 -3 33 -9z"/>
<path d="M5705 1748 c-2 -7 -5 -58 -8 -114 -2 -55 -7 -106 -11 -112 -4 -7 -33
-12 -69 -12 -65 0 -94 -10 -83 -29 8 -13 71 -31 108 -31 15 0 30 -5 34 -12 4
-6 6 -104 5 -217 -2 -225 6 -290 46 -359 28 -50 78 -77 124 -67 30 7 79 56
105 107 l17 32 18 -23 c11 -13 19 -28 19 -35 0 -22 58 -76 82 -76 13 0 40 -3
60 -6 33 -6 41 -3 69 27 17 18 42 54 55 81 13 26 28 48 32 48 4 0 17 -20 30
-44 24 -44 55 -66 95 -66 27 0 86 35 93 55 7 17 34 20 34 4 0 -19 41 -69 68
-83 15 -8 49 -17 75 -21 44 -7 49 -5 78 26 17 18 35 44 40 56 5 13 16 23 25
23 14 0 16 -8 10 -57 -6 -55 -10 -61 -66 -113 -111 -103 -174 -239 -175 -377
0 -73 3 -84 24 -107 14 -15 43 -31 65 -37 54 -15 156 -15 182 -1 53 28 74 136
74 385 l0 177 29 0 c17 0 33 5 36 10 10 16 -15 40 -41 40 l-24 0 0 143 c0 78
5 160 11 181 10 37 9 41 -15 59 -25 18 -25 21 -20 91 6 66 5 74 -17 98 -29 32
-161 88 -206 88 -47 0 -97 -48 -123 -118 -21 -57 -50 -246 -50 -331 0 -86 -63
-166 -104 -132 -33 27 -47 170 -25 257 11 42 10 45 -15 65 -23 18 -26 27 -26
85 0 89 -18 119 -88 152 -31 14 -80 28 -107 30 -44 4 -55 0 -83 -23 -58 -49
-81 -109 -107 -288 -29 -199 -74 -297 -135 -297 -49 0 -55 33 -54 308 1 154 5
247 12 254 6 6 52 12 104 15 112 5 126 9 109 26 -6 7 -56 17 -109 22 l-97 10
0 110 c0 106 -1 109 -25 122 -32 16 -79 17 -85 1z m1114 -365 c32 -28 48 -102
33 -160 -7 -26 -17 -82 -22 -123 -14 -104 -36 -165 -75 -205 -43 -46 -78 -47
-102 -2 -15 27 -18 57 -18 182 1 131 4 157 23 207 26 63 79 118 116 118 13 0
33 -8 45 -17z m-557 -13 c37 -28 52 -98 33 -147 -8 -21 -19 -81 -24 -134 -16
-144 -49 -223 -100 -236 -55 -15 -73 3 -92 90 -24 117 2 304 57 396 30 52 84
65 126 31z m586 -822 c-3 -173 -4 -185 -28 -228 -14 -24 -37 -51 -52 -60 -25
-13 -31 -13 -55 0 -65 36 -64 163 1 305 40 85 99 165 123 165 13 0 14 -24 11
-182z"/>
<path d="M7603 1480 c-66 -28 -115 -163 -133 -365 -8 -96 -16 -132 -39 -182
-28 -59 -61 -91 -81 -78 -46 29 -57 220 -20 352 33 120 31 124 -85 138 -73 8
-85 17 -85 62 0 39 -19 51 -55 35 -22 -10 -23 -14 -28 -204 -3 -106 -9 -208
-13 -226 -5 -26 -3 -31 8 -27 24 9 38 51 54 159 22 153 20 148 57 144 l32 -3
-3 -111 c-6 -192 33 -328 102 -361 34 -16 38 -16 71 0 19 9 46 35 60 57 14 22
29 40 34 40 5 0 18 -17 28 -37 24 -48 57 -70 119 -78 45 -6 54 -4 82 20 18 15
44 53 59 86 15 32 30 59 34 59 4 0 12 -15 19 -34 28 -85 119 -110 182 -48 19
17 39 32 45 32 6 0 13 -18 17 -40 7 -46 30 -60 95 -60 44 0 51 12 51 91 0 25
9 87 20 137 36 168 60 174 60 13 0 -111 12 -167 39 -188 20 -15 77 -17 86 -3
4 6 18 52 31 103 32 123 73 227 89 227 9 0 14 -31 17 -123 3 -109 7 -130 31
-179 46 -93 124 -104 191 -26 38 44 76 142 76 196 0 43 -21 38 -33 -9 -23 -95
-29 -110 -53 -139 -32 -38 -67 -39 -91 -4 -22 34 -24 218 -4 323 l15 74 -28
23 c-37 33 -71 40 -100 21 -22 -15 -54 -86 -118 -266 -37 -105 -47 -92 -50 66
l-3 138 -42 15 c-39 13 -44 13 -62 -4 -19 -17 -51 -95 -81 -193 -28 -93 -46
-22 -36 144 8 129 -1 156 -51 166 -49 9 -53 -2 -53 -172 0 -159 -9 -220 -45
-294 -29 -63 -80 -73 -103 -22 -17 36 -25 172 -14 227 8 40 7 50 -8 63 -12 11
-19 38 -23 85 -3 37 -13 83 -22 100 -30 57 -180 107 -242 80z m149 -110 c37
-29 54 -103 35 -149 -9 -20 -20 -85 -26 -144 -17 -171 -57 -236 -138 -228 -43
4 -68 136 -53 273 15 131 35 195 75 235 38 38 71 42 107 13z"/>
<path d="M4823 1408 c-7 -8 -14 -112 -18 -268 -8 -289 -7 -292 59 -292 21 0
45 7 53 15 8 8 22 50 30 92 15 83 59 205 74 205 13 0 18 -34 21 -143 3 -95 4
-100 32 -124 25 -21 37 -24 78 -21 33 4 57 13 73 28 l25 24 33 -31 c41 -40
107 -57 197 -51 89 7 134 31 138 76 4 36 -9 51 -136 155 -86 71 -101 102 -81
161 12 34 21 43 54 55 36 12 45 12 78 -4 44 -21 64 -15 78 22 29 76 -10 104
-117 86 -139 -24 -219 -89 -219 -179 0 -54 29 -95 122 -169 88 -70 113 -99
113 -131 0 -53 -77 -58 -147 -10 -27 19 -58 36 -69 38 -14 3 -18 11 -16 28 1
14 5 49 9 79 4 43 3 53 -8 49 -8 -3 -16 -20 -20 -39 -7 -47 -40 -110 -64 -126
-18 -11 -24 -10 -43 3 -21 14 -22 22 -22 173 0 144 -2 159 -20 179 -25 27 -61
28 -84 3 -9 -10 -33 -56 -54 -102 -20 -46 -41 -86 -47 -89 -6 -3 -11 48 -13
141 -2 101 -6 150 -15 157 -22 19 -63 24 -74 10z"/>
</g>
</svg>
