<?xml version="1.0" standalone="no"?>
<!DOCTYPE svg PUBLIC "-//W3C//DTD SVG 20010904//EN"
 "http://www.w3.org/TR/2001/REC-SVG-20010904/DTD/svg10.dtd">
<svg version="1.0" xmlns="http://www.w3.org/2000/svg"
 width="500.000000pt" height="500.000000pt" viewBox="0 0 500.000000 500.000000"
 preserveAspectRatio="xMidYMid meet">

<g transform="translate(0.000000,500.000000) scale(0.100000,-0.100000)"
fill="#000000" stroke="none">
<path d="M3757 3149 c-47 -27 -47 -33 -47 -618 l0 -549 26 -31 26 -31 568 0
c313 0 576 3 585 6 44 17 45 32 45 614 0 566 -1 578 -39 607 -21 16 -1136 18
-1164 2z m303 -186 c22 -20 33 -40 37 -69 5 -36 1 -45 -26 -77 -40 -44 -78
-54 -126 -31 -60 28 -81 94 -49 155 28 56 114 67 164 22z m609 -278 c91 -45
111 -119 111 -402 0 -99 -2 -182 -4 -184 -2 -2 -45 -3 -94 -1 l-90 3 -4 189
c-3 173 -5 191 -24 217 -17 23 -30 29 -70 31 -43 2 -53 -1 -74 -23 -24 -26
-25 -31 -30 -223 l-5 -197 -91 -3 -92 -3 -7 123 c-3 68 -5 204 -3 303 l3 180
88 3 c76 2 88 1 94 -15 10 -27 26 -34 43 -19 60 53 169 62 249 21z m-589 -285
l0 -300 -95 0 -95 0 0 293 c0 162 3 297 7 300 3 4 46 7 95 7 l88 0 0 -300z"/>
<path d="M720 2979 c-100 -39 -67 -198 41 -199 45 0 84 29 99 75 15 47 -10
102 -56 121 -38 16 -50 16 -84 3z"/>
<path d="M47 2974 c-4 -4 -7 -202 -7 -441 l0 -433 270 0 271 0 -3 88 -3 87
-177 3 -178 2 -2 348 -3 347 -80 3 c-45 1 -84 0 -88 -4z"/>
<path d="M1637 2973 c-4 -3 -7 -201 -7 -440 l0 -433 90 0 90 0 0 145 c0 80 3
145 8 145 4 0 17 -15 28 -33 12 -17 54 -83 95 -144 l73 -113 114 0 c90 0 112
3 104 13 -5 6 -33 44 -61 82 -29 39 -61 81 -71 95 -46 60 -90 126 -90 132 0 5
8 16 18 26 9 10 48 54 86 98 39 43 83 93 99 109 l30 30 -103 3 c-57 1 -109 1
-115 -2 -7 -2 -47 -46 -90 -98 -82 -97 -110 -128 -120 -128 -3 0 -5 117 -5
260 l0 260 -83 0 c-46 0 -87 -3 -90 -7z"/>
<path d="M3350 2810 c0 -93 -4 -170 -9 -170 -5 0 -14 7 -21 15 -44 53 -187 72
-266 36 -108 -49 -178 -183 -169 -321 12 -168 123 -280 280 -280 69 0 103 12
163 57 l32 24 0 -35 0 -36 85 0 85 0 0 434 c0 386 -2 435 -16 440 -9 3 -49 6
-90 6 l-74 0 0 -170z m-53 -280 c41 -25 63 -68 63 -123 0 -55 -22 -100 -64
-132 -44 -33 -123 -35 -174 -3 -35 22 -71 84 -72 125 0 43 32 104 69 129 46
31 130 33 178 4z"/>
<path d="M1230 2690 c-25 -12 -57 -33 -72 -47 l-28 -27 0 37 0 37 -85 0 -85 0
0 -295 0 -295 89 0 90 0 3 189 c3 174 5 192 24 218 23 31 77 49 118 39 15 -4
35 -21 46 -39 18 -29 20 -51 20 -219 l0 -188 91 0 91 0 -4 228 c-3 197 -6 232
-23 267 -33 72 -81 102 -172 111 -46 4 -68 0 -103 -16z"/>
<path d="M2433 2696 c-117 -38 -193 -125 -211 -242 -26 -157 51 -289 198 -344
114 -42 258 -16 342 62 l32 30 -24 19 c-85 65 -102 74 -114 57 -18 -25 -88
-58 -121 -58 -43 0 -105 39 -126 79 -10 19 -16 38 -13 43 3 4 100 8 216 8
l211 0 -6 84 c-9 126 -54 203 -149 252 -43 23 -178 29 -235 10z m165 -136 c25
-20 55 -84 45 -94 -8 -8 -238 -8 -246 0 -11 11 15 64 45 89 38 32 120 35 156
5z"/>
<path d="M670 2395 l0 -295 90 0 90 0 0 295 0 295 -90 0 -90 0 0 -295z"/>
</g>
</svg>
