<?xml version="1.0" standalone="no"?>
<!DOCTYPE svg PUBLIC "-//W3C//DTD SVG 20010904//EN"
 "http://www.w3.org/TR/2001/REC-SVG-20010904/DTD/svg10.dtd">
<svg version="1.0" xmlns="http://www.w3.org/2000/svg"
 width="962.000000pt" height="259.000000pt" viewBox="0 0 962.000000 259.000000"
 preserveAspectRatio="xMidYMid meet">

<g transform="translate(0.000000,259.000000) scale(0.100000,-0.100000)"
fill="#000000" stroke="none">
<path d="M1198 1668 c-3 -1021 1 -956 -68 -1057 -78 -112 -194 -167 -335 -159
-106 7 -177 41 -250 120 -70 76 -98 146 -98 253 -1 70 3 89 30 147 54 116 151
192 277 218 52 11 124 8 162 -7 12 -4 14 33 14 220 0 257 8 237 -98 237 -317
0 -607 -180 -750 -465 -31 -63 -45 -107 -68 -215 -42 -199 17 -451 146 -624
70 -95 186 -193 290 -246 101 -52 259 -90 370 -90 109 0 265 37 361 85 171 87
292 209 377 380 77 154 75 137 79 728 2 290 6 527 8 527 1 0 33 -18 70 -41
132 -80 304 -135 458 -146 l87 -6 0 220 0 219 -85 12 c-147 19 -276 88 -379
203 -86 95 -137 212 -151 342 l-7 67 -219 0 -218 0 -3 -922z"/>
<path d="M2860 1693 l0 -153 168 0 c92 0 173 -4 180 -8 10 -7 13 -132 15 -593
l2 -584 182 -3 183 -2 2 587 3 588 143 1 c78 0 144 3 146 5 2 2 26 73 54 157
43 129 48 152 34 152 -9 0 -263 1 -564 3 l-548 2 0 -152z"/>
<path d="M5854 1841 c-2 -2 -4 -71 -4 -152 l0 -149 183 -2 182 -3 3 -592 2
-593 180 0 180 0 2 588 3 587 145 3 c80 2 148 6 151 10 8 8 99 295 95 299 -4
4 -1118 8 -1122 4z"/>
<path d="M8437 1842 c-16 -3 -17 -63 -17 -748 l0 -744 180 0 180 0 0 194 0
193 50 47 c27 25 53 46 57 46 4 -1 85 -111 178 -245 l170 -244 194 -1 193 0
-24 33 c-24 32 -83 116 -343 491 l-138 199 224 218 224 218 -215 0 -215 1
-177 -177 -178 -178 0 348 0 347 -22 0 c-13 0 -86 1 -164 3 -77 1 -148 1 -157
-1z"/>
<path d="M4152 1823 c-104 -51 -124 -205 -37 -282 86 -75 207 -58 273 39 20
30 23 45 20 96 -4 72 -35 121 -91 148 -44 20 -122 20 -165 -1z"/>
<path d="M4570 1095 l0 -745 175 0 175 0 0 190 0 190 53 50 c28 27 55 50 59
50 4 0 84 -110 179 -245 l172 -245 189 0 c103 0 188 3 188 7 0 3 -6 14 -14 22
-21 25 -467 671 -472 685 -3 8 89 104 218 230 l222 216 -214 0 -215 0 -180
-174 -180 -174 -3 344 -2 344 -175 0 -175 0 0 -745z"/>
<path d="M7495 1560 c-215 -31 -391 -161 -479 -351 -45 -98 -60 -178 -54 -292
28 -491 597 -747 1001 -449 77 58 132 124 178 216 135 274 48 605 -205 774
-132 88 -289 124 -441 102z m220 -337 c121 -63 193 -205 164 -326 -6 -29 -27
-75 -45 -103 -125 -197 -422 -177 -526 35 -33 66 -33 188 0 251 41 78 106 133
192 161 45 15 171 4 215 -18z"/>
<path d="M4060 860 l0 -510 175 0 175 0 0 510 0 510 -175 0 -175 0 0 -510z"/>
</g>
</svg>
