<?xml version="1.0" standalone="no"?>
<!DOCTYPE svg PUBLIC "-//W3C//DTD SVG 20010904//EN"
 "http://www.w3.org/TR/2001/REC-SVG-20010904/DTD/svg10.dtd">
<svg version="1.0" xmlns="http://www.w3.org/2000/svg"
 width="500.000000pt" height="499.000000pt" viewBox="0 0 500.000000 499.000000"
 preserveAspectRatio="xMidYMid meet">

<g transform="translate(0.000000,499.000000) scale(0.100000,-0.100000)"
fill="#000000" stroke="none">
<path d="M697 2948 c-247 -18 -272 -59 -272 -453 0 -402 19 -432 296 -454 313
-24 842 -6 914 31 66 35 84 74 101 212 17 141 17 281 0 421 -24 200 -56 227
-292 244 -162 13 -577 12 -747 -1z m431 -356 c89 -52 162 -95 162 -97 0 -3
-312 -185 -332 -193 -4 -2 -8 85 -8 193 0 108 4 195 8 193 4 -1 81 -45 170
-96z"/>
<path d="M3810 2511 c0 -456 -5 -424 69 -417 22 2 38 11 45 25 l12 21 34 -25
c48 -35 109 -34 150 3 48 43 63 124 58 306 -3 127 -7 158 -25 198 -24 53 -46
68 -100 68 -28 0 -48 -8 -76 -31 l-37 -30 0 145 0 146 -65 0 -65 0 0 -409z
m222 49 c14 -28 18 -61 18 -160 0 -69 -5 -142 -10 -162 -13 -47 -43 -65 -76
-47 -24 12 -24 13 -24 191 0 166 1 179 21 199 27 27 51 21 71 -21z"/>
<path d="M1893 2892 c-9 -5 -5 -30 13 -97 13 -50 37 -139 54 -200 16 -60 39
-139 50 -175 15 -51 20 -93 20 -192 l0 -128 65 0 65 0 0 136 c0 132 1 139 50
312 63 223 80 281 92 311 13 34 -1 43 -63 39 -51 -3 -54 -5 -65 -38 -14 -42
-35 -134 -72 -315 l-8 -40 -11 45 c-6 25 -17 72 -24 105 -6 33 -21 101 -33
150 l-21 90 -50 3 c-27 1 -55 -1 -62 -6z"/>
<path d="M3030 2844 l0 -54 65 0 65 0 0 -345 c0 -190 3 -345 8 -346 4 -1 32
-2 62 -2 l55 -2 3 348 2 347 65 0 65 0 0 50 0 50 -42 2 c-24 1 -112 2 -195 4
l-153 2 0 -54z"/>
<path d="M2370 2671 c-79 -41 -95 -102 -89 -333 4 -122 7 -148 25 -178 26 -46
75 -69 147 -70 81 0 128 25 157 87 21 44 23 62 24 203 0 165 -9 216 -48 259
-46 52 -150 67 -216 32z m112 -88 c16 -14 18 -34 18 -190 0 -101 -4 -182 -10
-194 -6 -11 -21 -19 -35 -19 -14 0 -29 8 -35 19 -6 12 -10 92 -10 192 0 146 2
175 17 191 20 22 31 23 55 1z"/>
<path d="M4313 2661 c-60 -44 -73 -91 -73 -271 0 -190 15 -242 80 -279 51 -28
142 -29 188 -1 42 26 72 76 72 123 0 35 -2 37 -32 37 -18 0 -42 3 -54 6 -17 4
-22 -2 -35 -43 -11 -40 -19 -49 -40 -51 -14 -2 -31 4 -38 12 -18 21 -20 150
-3 152 6 1 55 2 108 3 l96 1 -4 118 c-3 132 -14 164 -67 199 -53 36 -145 33
-198 -6z m136 -98 c6 -21 11 -62 11 -91 l0 -53 -47 3 -48 3 1 72 c0 78 12 103
50 103 18 0 25 -8 33 -37z"/>
<path d="M2700 2483 c0 -279 6 -327 42 -364 25 -24 38 -29 80 -29 44 0 54 4
85 35 19 19 37 35 38 35 2 0 5 -12 7 -27 3 -26 7 -28 56 -31 l52 -3 0 290 0
291 -65 0 -65 0 0 -235 0 -235 -26 -17 c-19 -12 -30 -14 -43 -6 -14 9 -16 40
-19 252 l-2 241 -70 0 -70 0 0 -197z"/>
<path d="M3380 2431 c0 -151 4 -260 11 -279 14 -41 49 -62 102 -62 43 0 84 22
113 59 9 11 12 8 17 -18 6 -30 8 -31 57 -31 l50 0 0 290 0 290 -65 0 -65 0 0
-238 0 -239 -26 -13 c-18 -10 -30 -11 -42 -3 -15 9 -17 38 -20 252 l-2 241
-65 0 -65 0 0 -249z"/>
</g>
</svg>
